<?xml version="1.0" encoding="UTF-8"?>
<svg xmlns="http://www.w3.org/2000/svg" xmlns:xlink="http://www.w3.org/1999/xlink" width="40pt" height="40pt" viewBox="0 0 40 40" version="1.1">
<defs>
<linearGradient id="linear0" gradientUnits="userSpaceOnUse" x1="0" y1="-15414" x2="512" y2="-15414" gradientTransform="matrix(0.078125,0,0,-0.078125,0,-1184.21875)">
<stop offset="0" style="stop-color:rgb(0%,95.294118%,55.294118%);stop-opacity:1;"/>
<stop offset="1" style="stop-color:rgb(0%,61.960784%,100%);stop-opacity:1;"/>
</linearGradient>
</defs>
<g id="surface1">
<path style=" stroke:none;fill-rule:nonzero;fill:url(#linear0);" d="M 40 20 C 40 31.046875 31.046875 40 20 40 C 8.953125 40 0 31.046875 0 20 C 0 8.953125 8.953125 0 20 0 C 31.046875 0 40 8.953125 40 20 Z M 40 20 "/>
<path style=" stroke:none;fill-rule:nonzero;fill:rgb(100%,100%,100%);fill-opacity:1;" d="M 21.976562 20 C 21.976562 21.089844 21.089844 21.976562 20 21.976562 C 18.910156 21.976562 18.023438 21.089844 18.023438 20 C 18.023438 18.910156 18.910156 18.023438 20 18.023438 C 21.089844 18.023438 21.976562 18.910156 21.976562 20 Z M 21.976562 20 "/>
<path style=" stroke:none;fill-rule:nonzero;fill:rgb(100%,100%,100%);fill-opacity:1;" d="M 35.808594 18.828125 L 32.601562 18.828125 C 32.042969 12.78125 27.21875 7.957031 21.171875 7.398438 L 21.171875 4.191406 L 18.828125 4.191406 L 18.828125 7.398438 C 12.78125 7.957031 7.957031 12.78125 7.398438 18.828125 L 4.191406 18.828125 L 4.191406 21.171875 L 7.398438 21.171875 C 7.957031 27.21875 12.78125 32.042969 18.828125 32.601562 L 18.828125 35.808594 L 21.171875 35.808594 L 21.171875 32.601562 C 27.21875 32.042969 32.042969 27.21875 32.601562 21.171875 L 35.808594 21.171875 Z M 21.171875 30.246094 L 21.171875 27.039062 L 18.828125 27.039062 L 18.828125 30.246094 C 14.074219 29.707031 10.292969 25.925781 9.753906 21.171875 L 12.960938 21.171875 L 12.960938 18.828125 L 9.753906 18.828125 C 10.292969 14.078125 14.078125 10.292969 18.828125 9.753906 L 18.828125 12.960938 L 21.171875 12.960938 L 21.171875 9.753906 C 25.925781 10.292969 29.707031 14.074219 30.246094 18.828125 L 27.039062 18.828125 L 27.039062 21.171875 L 30.246094 21.171875 C 29.707031 25.921875 25.925781 29.707031 21.171875 30.246094 Z M 21.171875 30.246094 "/>
</g>
</svg>
